<?xml version="1.0" encoding="utf-8"?><svg width="349" height="311" viewBox="0 0 349 311" xmlns="http://www.w3.org/2000/svg" xmlns:xlink="http://www.w3.org/1999/xlink"><svg width="29" height="26" viewBox="-4 -4 29 26" id="icon_blog" x="124" y="88" xmlns="http://www.w3.org/2000/svg"><path fill="#565656" fill-rule="evenodd" d="M17.682 0C19.514 0 21 1.52 21 3.392v8.046c0 1.872-1.486 3.39-3.318 3.39h-4.948l-1.688 2.8s-.015.035-.058.085c-.1.17-.28.287-.488.287a.567.567 0 0 1-.492-.29.506.506 0 0 1-.054-.082l-1.689-2.8h-4.95C1.483 14.828 0 13.31 0 11.438V3.392C0 1.52 1.483 0 3.315 0h14.367zm-1.306 5.65h-.054c-.302.006-1.761.13-1.761 1.94 0 0-.02 1.882 1.766 1.882h.036c.152-.002.744-.04 1.092-.483v.295c.007.106.037.927-.818.927h-.31v1.122h.506c.121 0 1.87-.049 1.87-1.979v-3.58h-1.248v.358l-.007-.008a1.418 1.418 0 0 0-1.072-.475zM3.579 4.121H2.297v5.28h1.296v-.413c.047.075.361.546 1.08.546 0 0 1.807-.067 1.807-1.974 0 0-.066-1.93-1.808-1.93 0 0-.573 0-1.093.501v-2.01zm8.163 1.527s-2.122 0-2.122 1.955c0 0-.068 1.931 2.122 1.931 0 0 2.17-.004 2.17-1.93v-.056c-.008-.316-.152-1.9-2.17-1.9zM6.894 4v1.225h.02c.103.008.564.094.564 1.053v3.125h1.238V5.958C8.714 5.714 8.636 4 6.894 4zM4.388 6.79c.456 0 .825.363.825.814 0 .45-.37.813-.825.813a.818.818 0 0 1-.824-.813c0-.45.368-.814.824-.814zm7.355 0c.455 0 .825.363.825.814 0 .45-.37.813-.825.813a.818.818 0 0 1-.825-.813c0-.45.368-.814.825-.814zm4.945 0c.456 0 .824.363.824.814 0 .45-.368.813-.824.813a.819.819 0 0 1-.825-.813c0-.45.37-.814.825-.814z"/></svg><svg width="29" height="26" viewBox="-4 -4 29 26" id="icon_dark_blog" x="182" y="116" xmlns="http://www.w3.org/2000/svg"><path fill="#FFF" fill-rule="evenodd" d="M17.682 0C19.514 0 21 1.52 21 3.392v8.046c0 1.872-1.486 3.39-3.318 3.39h-4.948l-1.688 2.8s-.015.035-.058.085c-.1.17-.28.287-.488.287a.567.567 0 0 1-.492-.29.506.506 0 0 1-.054-.082l-1.689-2.8h-4.95C1.483 14.828 0 13.31 0 11.438V3.392C0 1.52 1.483 0 3.315 0h14.367zm-1.306 5.65h-.054c-.302.006-1.761.13-1.761 1.94 0 0-.02 1.882 1.766 1.882h.036c.152-.002.744-.04 1.092-.483v.295c.007.106.037.927-.818.927h-.31v1.122h.506c.121 0 1.87-.049 1.87-1.979v-3.58h-1.248v.358l-.007-.008a1.418 1.418 0 0 0-1.072-.475zM3.579 4.121H2.297v5.28h1.296v-.413c.047.075.361.546 1.08.546 0 0 1.807-.067 1.807-1.974 0 0-.066-1.93-1.808-1.93 0 0-.573 0-1.093.501v-2.01zm8.163 1.527s-2.122 0-2.122 1.955c0 0-.068 1.931 2.122 1.931 0 0 2.17-.004 2.17-1.93v-.056c-.008-.316-.152-1.9-2.17-1.9zM6.894 4v1.225h.02c.103.008.564.094.564 1.053v3.125h1.238V5.958C8.714 5.714 8.636 4 6.894 4zM4.388 6.79c.456 0 .825.363.825.814 0 .45-.37.813-.825.813a.818.818 0 0 1-.824-.813c0-.45.368-.814.824-.814zm7.355 0c.455 0 .825.363.825.814 0 .45-.37.813-.825.813a.818.818 0 0 1-.825-.813c0-.45.368-.814.825-.814zm4.945 0c.456 0 .824.363.824.814 0 .45-.368.813-.824.813a.819.819 0 0 1-.825-.813c0-.45.37-.814.825-.814z" opacity=".2"/></svg><svg width="26" height="26" viewBox="-4 -4 26 26" id="icon_dark_facebook" x="110" y="214" xmlns="http://www.w3.org/2000/svg"><path fill="#FFF" fill-rule="evenodd" d="M17.007 0H.993A.993.993 0 0 0 0 .994v16.013c0 .549.445.993.993.993h8.622v-6.97H7.269V8.312h2.346V6.31c0-2.326 1.42-3.592 3.493-3.592.994 0 1.848.074 2.098.108v2.429h-1.44c-1.128 0-1.346.537-1.346 1.324v1.734h2.69l-.35 2.716h-2.34V18h4.587a.993.993 0 0 0 .993-.993V.994A.993.993 0 0 0 17.007 0" opacity=".2"/></svg><svg width="124" height="28" viewBox="-4 -4 124 28" id="icon_dark_footer_logo" y="88" xmlns="http://www.w3.org/2000/svg"><path fill="#565656" fill-rule="evenodd" d="M79.83 2a7.98 7.98 0 0 1 6.222 2.942A7.99 7.99 0 0 1 87.867 10a7.992 7.992 0 0 1-1.816 5.057s-.052.069-.065.084A8.038 8.038 0 0 1 79.83 18a8.027 8.027 0 0 1-6.92-3.934A7.986 7.986 0 0 1 71.794 10a7.99 7.99 0 0 1 1.812-5.06A8.025 8.025 0 0 1 79.83 2zM53.723 2a8.036 8.036 0 0 1 6.156 2.859l.062.074-2.753 2.243a4.504 4.504 0 0 0-3.465-1.64c-2.473 0-4.484 2.002-4.484 4.464 0 2.462 2.011 4.464 4.484 4.464 1.251 0 2.457-.53 3.307-1.456l.056-.06.066-.078.037-.046 2.752 2.243-.062.074A8.038 8.038 0 0 1 53.723 18c-4.431 0-8.036-3.589-8.036-8s3.605-8 8.036-8zm38.045.483l3.708 9.624 3.71-9.624h3.718L97.11 17.517h-3.267L88.049 2.483h3.719zm-26.538 0v11.58h5.863v3.454H61.76V2.483h3.47zm44.976 0L116 17.517h-3.718l-.956-2.643h-5.507l-.955 2.643h-3.719l5.794-15.034h3.267zM79.83 5.536A4.477 4.477 0 0 0 75.346 10a4.46 4.46 0 0 0 1.011 2.823 4.48 4.48 0 0 0 3.473 1.641c1.252 0 2.457-.53 3.307-1.457.041-.045.08-.092.119-.14l.04-.05A4.386 4.386 0 0 0 84.315 10a4.382 4.382 0 0 0-1.019-2.817 4.232 4.232 0 0 0-.42-.452 4.476 4.476 0 0 0-3.046-1.195zm-77.023.706l2.597 3.793V6.242H8.2v7.517H5.395L2.798 9.966v3.793H0V6.242h2.807zm33.487 0c2.024 0 3.56.623 3.56 2.559 0 1.084-.567 1.783-1.463 2.092l-.171.054 2.261 2.811h-3.215l-1.67-2.347v2.347h-2.797V6.242h3.495zm-4.642 0v1.957h-2.9v.885h2.672v1.847h-2.672v.87h2.99v1.958H25.98V6.242h5.671zm-16.718 0l2.943 7.516h-3.11l-.273-.981h-2.31l-.271.981H8.8l2.942-7.516h3.191zm4.563 0l1.378 4.532h.077l1.38-4.532h3.05l-3.148 7.517h-2.641l-3.148-7.517h3.052zm89.075.625l-1.713 4.901h3.427l-1.714-4.901zM13.377 8.56h-.076l-.659 2.48h1.394l-.659-2.48zm22.72-.427h-.59v1.48h.6c.26 0 .575-.065.738-.197a.64.64 0 0 0 .24-.529c0-.233-.073-.417-.229-.552-.156-.134-.478-.202-.76-.202z"/></svg><svg width="26" height="26" viewBox="-4 -4 26 26" id="icon_dark_instargram" x="84" y="214" xmlns="http://www.w3.org/2000/svg"><path fill="#FFF" fill-rule="evenodd" d="M12.804 0A5.195 5.195 0 0 1 18 5.195v7.61A5.194 5.194 0 0 1 12.804 18H5.195A5.193 5.193 0 0 1 0 12.805v-7.61A5.195 5.195 0 0 1 5.195 0zM9 4.375a4.67 4.67 0 0 0-4.669 4.67 4.67 4.67 0 1 0 9.34 0A4.672 4.672 0 0 0 9 4.376zm0 1.642a3.028 3.028 0 1 1 0 6.056 3.028 3.028 0 0 1 0-6.056zm4.827-2.909a1.089 1.089 0 1 0 0 2.178 1.089 1.089 0 0 0 0-2.178z" opacity=".2"/></svg><svg width="28" height="26" viewBox="-4 -4 28 26" id="icon_dark_youtube" x="211" y="116" xmlns="http://www.w3.org/2000/svg"><path fill="#FFF" fill-rule="evenodd" d="M17.283 2.252c1.317.21 2.03.788 2.413 2.298.128.502.304 3.278.304 4.333v.234c0 1.058-.176 3.83-.304 4.336-.382 1.505-1.096 2.086-2.413 2.294-.758.112-4.398.253-7.29.253l.013-.002c-2.891 0-6.534-.14-7.289-.25-1.316-.21-2.033-.79-2.412-2.295C.176 12.947 0 10.175 0 9.117v-.234c0-1.055.176-3.83.305-4.333.38-1.506 1.096-2.089 2.412-2.298.73-.107 4.163-.243 7-.252h.282c2.89 0 6.529.141 7.284.252zM8.507 6.47v5.06l4.796-2.589L8.507 6.47z" opacity=".2"/></svg><svg width="26" height="26" viewBox="-4 -4 26 26" id="icon_facebook" x="208" y="164" xmlns="http://www.w3.org/2000/svg"><path fill="#565656" fill-rule="evenodd" d="M17.007 0H.993A.993.993 0 0 0 0 .994v16.013c0 .549.445.993.993.993h8.622v-6.97H7.269V8.312h2.346V6.31c0-2.326 1.42-3.592 3.493-3.592.994 0 1.848.074 2.098.108v2.429h-1.44c-1.128 0-1.346.537-1.346 1.324v1.734h2.69l-.35 2.716h-2.34V18h4.587a.993.993 0 0 0 .993-.993V.994A.993.993 0 0 0 17.007 0"/></svg><svg width="98" height="98" viewBox="-4 -4 98 98" id="icon_feature_01" x="84" y="116" xmlns="http://www.w3.org/2000/svg"><g fill="none" fill-rule="evenodd"><path fill="#0AEA8E" d="M56.4 85.799H18c-4.418 0-8-3.599-8-8.039l8-66.721C18 6.599 21.582 3 26 3h22.4c4.418 0 8 3.6 8 8.039l8 66.721c0 4.44-3.582 8.039-8 8.039" style="mix-blend-mode:multiply"/><path stroke="#FFF" stroke-linecap="round" stroke-linejoin="round" stroke-width="2.4" d="M24.4 33.145v5.627m6.4-9.646v13.666m6.4-19.293v24.92m6.4-19.293v13.666m6.4-9.647v5.627"/><path fill="#00C6FF" d="M74.4 85.719h-14c-3.093 0-5.6-2.52-5.6-5.627V46.61c0-6.993 5.64-12.66 12.6-12.66S80 39.616 80 46.61v33.482c0 3.107-2.507 5.627-5.6 5.627" style="mix-blend-mode:multiply"/></g></svg><svg width="98" height="98" viewBox="-4 -4 98 98" id="icon_feature_02" x="251" xmlns="http://www.w3.org/2000/svg"><g fill="none" fill-rule="evenodd"><path fill="#00C6FF" d="M53.655 15.852c0 7.098-5.728 12.852-12.792 12.852-7.065 0-12.792-5.754-12.792-12.852C28.07 8.754 33.798 3 40.863 3c7.064 0 12.792 5.754 12.792 12.852" style="mix-blend-mode:multiply"/><path fill="#0AEA8E" d="M66.428 18.487h-52.3c-4.49 0-8.128 3.63-8.128 8.107v11.748c0 2.537 2.689 4.156 4.916 2.96a12.022 12.022 0 0 1 6.274-1.416c6.172.284 11.252 5.388 11.537 11.59.32 6.989-5.225 12.756-12.11 12.756a12.02 12.02 0 0 1-5.642-1.398C8.716 61.637 6 63.198 6 65.764v12.72c0 4.48 3.639 8.109 8.128 8.109h52.3c4.49 0 8.129-3.63 8.129-8.108v-51.89c0-4.478-3.64-8.109-8.129-8.108" style="mix-blend-mode:multiply"/><path stroke="#FFF" stroke-linecap="round" stroke-linejoin="round" stroke-width="2.4" d="M40.444 38.192v16.8m.233 9.648h-.04a.4.4 0 0 1-.398-.4v-.04a.4.4 0 0 1 .398-.4h.04a.4.4 0 0 1 .398.4v.04a.4.4 0 0 1-.398.4z"/><path fill="#00C6FF" d="M89.685 52.052c0 7.098-5.727 12.852-12.792 12.852-7.064 0-12.792-5.754-12.792-12.852 0-7.098 5.728-12.852 12.792-12.852 7.065 0 12.792 5.754 12.792 12.852" style="mix-blend-mode:multiply"/></g></svg><svg width="98" height="98" viewBox="-4 -4 98 98" id="icon_feature_03" x="153" xmlns="http://www.w3.org/2000/svg"><g fill="none" fill-rule="evenodd"><path fill="#0AEA8E" d="M10.217 29.707v29.242c0 3.257 1.765 6.27 4.633 7.909L40.312 81.41a9.478 9.478 0 0 0 9.387 0l25.462-14.552c2.868-1.64 4.632-4.652 4.632-7.91v-29.24c0-3.258-1.764-6.27-4.632-7.909L49.7 7.247a9.478 9.478 0 0 0-9.387 0L14.85 21.798c-2.868 1.64-4.633 4.651-4.633 7.909" style="mix-blend-mode:multiply"/><path stroke="#FFF" stroke-linecap="round" stroke-linejoin="round" stroke-width="1.528" d="M19.099 29.049l51.813 30.557m0-30.557L19.099 59.606"/><path fill="#00C6FF" d="M86.011 24.261c0 3.37-2.784 6.102-6.217 6.102-3.434 0-6.218-2.732-6.218-6.102s2.784-6.101 6.218-6.101c3.433 0 6.217 2.732 6.217 6.101" style="mix-blend-mode:multiply"/><path fill="#0AEA8E" d="M86.011 64.213c0 3.37-2.784 6.102-6.217 6.102-3.434 0-6.218-2.732-6.218-6.102s2.784-6.102 6.218-6.102c3.433 0 6.217 2.732 6.217 6.102" style="mix-blend-mode:multiply"/><path fill="#00C6FF" d="M16.435 24.261c0 3.37-2.784 6.102-6.218 6.102C6.784 30.363 4 27.631 4 24.261s2.784-6.101 6.217-6.101c3.434 0 6.218 2.732 6.218 6.101" style="mix-blend-mode:multiply"/><path fill="#0AEA8E" d="M16.435 64.213c0 3.37-2.784 6.102-6.218 6.102C6.784 70.315 4 67.583 4 64.213s2.784-6.102 6.217-6.102c3.434 0 6.218 2.732 6.218 6.102M51.223 6.102c0 3.37-2.784 6.101-6.218 6.101-3.433 0-6.217-2.732-6.217-6.101 0-3.37 2.784-6.102 6.217-6.102 3.434 0 6.218 2.732 6.218 6.102" style="mix-blend-mode:multiply"/><path stroke="#FFF" stroke-linecap="round" stroke-linejoin="round" stroke-width="1.528" d="M45.005 15.272v58.111"/><path fill="#00C6FF" d="M51.223 83.1c0 3.37-2.784 6.1-6.218 6.1-3.433 0-6.217-2.73-6.217-6.1 0-3.37 2.784-6.103 6.217-6.103 3.434 0 6.218 2.732 6.218 6.102" style="mix-blend-mode:multiply"/></g></svg><svg width="98" height="97" viewBox="-4 -4 98 97" id="icon_feature_04" x="251" y="98" xmlns="http://www.w3.org/2000/svg"><g fill="none" fill-rule="evenodd"><path fill="#0AEA8E" d="M78.877 34.919c0-17.66-14.105-32.07-31.821-32.9a32.555 32.555 0 0 0-3.235 0C26.105 2.848 12 17.258 12 34.918c0 11.117 5.592 20.944 14.153 26.91 1.959 1.364 3.17 3.54 3.17 5.904V79.37c0 3.946 3.247 7.144 7.252 7.144h17.726c4.006 0 7.252-3.198 7.252-7.144V67.733c0-2.364 1.212-4.54 3.17-5.905 8.563-5.965 14.154-15.792 14.154-26.91" style="mix-blend-mode:multiply"/><path stroke="#FFF" stroke-linecap="round" stroke-linejoin="round" stroke-width="2.318" d="M45.438 27.607c9.82 0 17.781 3.443 17.781 7.69s-7.96 7.69-17.78 7.69c-9.821 0-17.781-3.443-17.781-7.69s7.96-7.69 17.78-7.69z"/><path stroke="#FFF" stroke-linecap="round" stroke-linejoin="round" stroke-width="2.318" d="M45.438 37.434c9.82 0 17.781 3.443 17.781 7.69s-7.96 7.69-17.78 7.69c-9.821 0-17.781-3.443-17.781-7.69s7.96-7.69 17.78-7.69zm0-19.654c9.82 0 17.781 3.444 17.781 7.69 0 4.248-7.96 7.69-17.78 7.69-9.821 0-17.781-3.442-17.781-7.69 0-4.246 7.96-7.69 17.78-7.69z"/><path fill="#00C6FF" d="M63.412 70.776H27.078c-1.495 0-2.706-1.194-2.706-2.666 0-1.473 1.211-2.666 2.706-2.666h36.334c1.495 0 2.706 1.193 2.706 2.666 0 1.472-1.211 2.666-2.706 2.666m0 9.9H27.078c-1.495 0-2.706-1.193-2.706-2.665 0-1.473 1.211-2.666 2.706-2.666h36.334c1.495 0 2.706 1.193 2.706 2.666 0 1.472-1.211 2.665-2.706 2.665" style="mix-blend-mode:multiply"/></g></svg><svg width="23" height="24" viewBox="-4 -4 23 24" id="icon_footer_instargram" x="182" y="190" xmlns="http://www.w3.org/2000/svg"><path fill="#565656" fill-rule="evenodd" d="M10.67.783c2.392 0 4.33 1.853 4.33 4.14v6.067c0 2.288-1.938 4.14-4.33 4.14H4.33C1.937 15.13 0 13.278 0 10.99V4.923C0 2.636 1.938.783 4.33.783zM7.5 4.27c-2.149 0-3.89 1.666-3.89 3.723 0 2.055 1.741 3.722 3.89 3.722 2.15 0 3.893-1.667 3.893-3.722 0-2.057-1.743-3.723-3.893-3.723zm0 1.309c1.395 0 2.523 1.081 2.523 2.414 0 1.333-1.128 2.413-2.523 2.413-1.393 0-2.522-1.08-2.522-2.413 0-1.333 1.13-2.414 2.522-2.414zm4.023-2.319c-.5 0-.908.388-.908.867 0 .48.407.868.908.868.501 0 .906-.387.906-.868 0-.479-.405-.867-.906-.867z"/></svg><svg width="153" height="28" viewBox="-4 -4 153 28" id="icon_footer_logo" y="60" xmlns="http://www.w3.org/2000/svg"><path fill="#565656" fill-rule="evenodd" d="M99.788 0a9.98 9.98 0 0 1 7.777 3.678A9.984 9.984 0 0 1 109.833 10c0 2.294-.806 4.54-2.269 6.321 0 0-.065.086-.082.105A10.044 10.044 0 0 1 99.788 20a10.031 10.031 0 0 1-8.65-4.917A9.984 9.984 0 0 1 89.742 10c0-2.3.804-4.546 2.265-6.325A10.034 10.034 0 0 1 99.787 0zM67.154 0c2.974 0 5.779 1.303 7.694 3.574l.078.092-3.44 2.805a5.628 5.628 0 0 0-4.332-2.051c-3.091 0-5.606 2.503-5.606 5.58s2.515 5.58 5.606 5.58c1.564 0 3.07-.663 4.133-1.82l.07-.076.083-.097.046-.056 3.44 2.803-.078.092A10.044 10.044 0 0 1 67.154 20c-5.54 0-10.046-4.486-10.046-10S61.615 0 67.154 0zm47.555.604l4.636 12.03 4.637-12.03h4.648l-7.242 18.792h-4.085L110.061.604h4.648zm-33.172 0v14.474h7.329v4.318H77.199V.604h4.338zm56.22 0L145 19.396h-4.648l-1.194-3.304h-6.885l-1.193 3.304h-4.648L133.673.604h4.085zM99.788 4.42A5.594 5.594 0 0 0 94.183 10c0 1.283.45 2.536 1.265 3.528a5.591 5.591 0 0 0 4.34 2.052 5.627 5.627 0 0 0 4.134-1.82c.052-.057.1-.116.149-.176l.05-.062A5.486 5.486 0 0 0 105.394 10c0-1.292-.44-2.51-1.273-3.521a5.336 5.336 0 0 0-.525-.566 5.595 5.595 0 0 0-3.807-1.493zM3.51 5.303l3.246 4.74v-4.74h3.496v9.395H6.743l-3.246-4.74v4.74H0V5.303h3.51zm36.057 0v2.446H35.94v1.106h3.34v2.31h-3.34v1.085h3.736v2.448h-7.2V5.302h7.09zm-15.195 0l1.723 5.665h.096l1.724-5.666h3.813l-3.935 9.396h-3.3l-3.936-9.396h3.815zm20.996 0c2.53 0 4.45.778 4.45 3.198 0 1.372-.725 2.25-1.868 2.629l-.174.053 2.827 3.515h-4.02l-2.087-2.934v2.934H41V5.302h4.368zm-26.7 0l3.68 9.395h-3.89l-.34-1.227H15.23l-.34 1.227h-3.889l3.678-9.396h3.989zm117.049.78l-2.142 6.127h4.283l-2.141-6.126zM16.722 8.2h-.096l-.823 3.1h1.742l-.823-3.1zm28.398-.533h-.736v1.85h.75c.325 0 .718-.082.922-.247.204-.164.3-.384.3-.661 0-.291-.09-.521-.286-.69-.195-.168-.597-.252-.95-.252z"/></svg><svg width="26" height="26" viewBox="-4 -4 26 26" id="icon_instargram" x="182" y="164" xmlns="http://www.w3.org/2000/svg"><path fill="#565656" fill-rule="evenodd" d="M12.804 0A5.195 5.195 0 0 1 18 5.195v7.61A5.194 5.194 0 0 1 12.804 18H5.195A5.193 5.193 0 0 1 0 12.805v-7.61A5.195 5.195 0 0 1 5.195 0zM9 4.375a4.67 4.67 0 0 0-4.669 4.67 4.67 4.67 0 1 0 9.34 0A4.672 4.672 0 0 0 9 4.376zm0 1.642a3.028 3.028 0 1 1 0 6.056 3.028 3.028 0 0 1 0-6.056zm4.827-2.909a1.089 1.089 0 1 0 0 2.178 1.089 1.089 0 0 0 0-2.178z"/></svg><svg width="153" height="30" viewBox="-4 -4 153 30" id="icon_logo" y="30" xmlns="http://www.w3.org/2000/svg"><path fill-rule="evenodd" d="M99.788 1a9.98 9.98 0 0 1 7.777 3.678A9.984 9.984 0 0 1 109.833 11c0 2.294-.806 4.54-2.269 6.321 0 0-.065.086-.082.105A10.044 10.044 0 0 1 99.788 21a10.031 10.031 0 0 1-8.65-4.917A9.984 9.984 0 0 1 89.742 11c0-2.3.804-4.546 2.265-6.325A10.034 10.034 0 0 1 99.787 1zM67.154 1c2.974 0 5.779 1.303 7.694 3.574l.078.092-3.44 2.805a5.628 5.628 0 0 0-4.332-2.051c-3.091 0-5.606 2.503-5.606 5.58s2.515 5.58 5.606 5.58c1.564 0 3.07-.663 4.133-1.82l.07-.076.083-.097.046-.056 3.44 2.803-.078.092A10.044 10.044 0 0 1 67.154 21c-5.54 0-10.046-4.486-10.046-10S61.615 1 67.154 1zm47.555.604l4.636 12.03 4.637-12.03h4.648l-7.242 18.792h-4.085l-7.242-18.792h4.648zm-33.172 0v14.474h7.329v4.318H77.199V1.604h4.338zm56.22 0L145 20.396h-4.648l-1.194-3.304h-6.885l-1.193 3.304h-4.648l7.241-18.792h4.085zM99.788 5.42A5.594 5.594 0 0 0 94.183 11c0 1.283.45 2.536 1.265 3.528a5.591 5.591 0 0 0 4.34 2.052 5.627 5.627 0 0 0 4.134-1.82c.052-.057.1-.116.149-.176l.05-.062A5.486 5.486 0 0 0 105.394 11c0-1.292-.44-2.51-1.273-3.521a5.336 5.336 0 0 0-.525-.566 5.595 5.595 0 0 0-3.807-1.493zM3.51 6.303l3.246 4.74v-4.74h3.496v9.395H6.743l-3.246-4.74v4.74H0V6.303h3.51zm36.057 0v2.446H35.94v1.106h3.34v2.31h-3.34v1.085h3.736v2.448h-7.2V6.302h7.09zm-15.195 0l1.723 5.665h.096l1.724-5.666h3.813l-3.935 9.396h-3.3l-3.936-9.396h3.815zm20.996 0c2.53 0 4.45.778 4.45 3.198 0 1.372-.725 2.25-1.868 2.629l-.174.053 2.827 3.515h-4.02l-2.087-2.934v2.934H41V6.302h4.368zm-26.7 0l3.68 9.395h-3.89l-.34-1.227H15.23l-.34 1.227h-3.889l3.678-9.396h3.989zm117.049.78l-2.142 6.127h4.283l-2.141-6.126zM16.722 9.2h-.096l-.823 3.1h1.742l-.823-3.1zm28.398-.533h-.736v1.85h.75c.325 0 .718-.082.922-.247.204-.164.3-.384.3-.661 0-.291-.09-.521-.286-.69-.195-.168-.597-.252-.95-.252z"/></svg><svg width="153" height="30" viewBox="-4 -4 153 30" id="icon_logo_main" xmlns="http://www.w3.org/2000/svg"><path fill="#FFF" fill-rule="evenodd" d="M99.788 1a9.98 9.98 0 0 1 7.777 3.678A9.984 9.984 0 0 1 109.833 11c0 2.294-.806 4.54-2.269 6.321 0 0-.065.086-.082.105A10.044 10.044 0 0 1 99.788 21a10.031 10.031 0 0 1-8.65-4.917A9.984 9.984 0 0 1 89.742 11c0-2.3.804-4.546 2.265-6.325A10.034 10.034 0 0 1 99.787 1zM67.154 1c2.974 0 5.779 1.303 7.694 3.574l.078.092-3.44 2.805a5.628 5.628 0 0 0-4.332-2.051c-3.091 0-5.606 2.503-5.606 5.58s2.515 5.58 5.606 5.58c1.564 0 3.07-.663 4.133-1.82l.07-.076.083-.097.046-.056 3.44 2.803-.078.092A10.044 10.044 0 0 1 67.154 21c-5.54 0-10.046-4.486-10.046-10S61.615 1 67.154 1zm47.555.604l4.636 12.03 4.637-12.03h4.648l-7.242 18.792h-4.085l-7.242-18.792h4.648zm-33.172 0v14.474h7.329v4.318H77.199V1.604h4.338zm56.22 0L145 20.396h-4.648l-1.194-3.304h-6.885l-1.193 3.304h-4.648l7.241-18.792h4.085zM99.788 5.42A5.594 5.594 0 0 0 94.183 11c0 1.283.45 2.536 1.265 3.528a5.591 5.591 0 0 0 4.34 2.052 5.627 5.627 0 0 0 4.134-1.82c.052-.057.1-.116.149-.176l.05-.062A5.486 5.486 0 0 0 105.394 11c0-1.292-.44-2.51-1.273-3.521a5.336 5.336 0 0 0-.525-.566 5.595 5.595 0 0 0-3.807-1.493zM3.51 6.303l3.246 4.74v-4.74h3.496v9.395H6.743l-3.246-4.74v4.74H0V6.303h3.51zm36.057 0v2.446H35.94v1.106h3.34v2.31h-3.34v1.085h3.736v2.448h-7.2V6.302h7.09zm-15.195 0l1.723 5.665h.096l1.724-5.666h3.813l-3.935 9.396h-3.3l-3.936-9.396h3.815zm20.996 0c2.53 0 4.45.778 4.45 3.198 0 1.372-.725 2.25-1.868 2.629l-.174.053 2.827 3.515h-4.02l-2.087-2.934v2.934H41V6.302h4.368zm-26.7 0l3.68 9.395h-3.89l-.34-1.227H15.23l-.34 1.227h-3.889l3.678-9.396h3.989zm117.049.78l-2.142 6.127h4.283l-2.141-6.126zM16.722 9.2h-.096l-.823 3.1h1.742l-.823-3.1zm28.398-.533h-.736v1.85h.75c.325 0 .718-.082.922-.247.204-.164.3-.384.3-.661 0-.291-.09-.521-.286-.69-.195-.168-.597-.252-.95-.252z"/></svg><svg width="84" height="98" viewBox="-4 -4 84 98" id="icon_special_01" y="116" xmlns="http://www.w3.org/2000/svg"><g fill="none" fill-rule="evenodd"><path fill="#0AEA8E" d="M75.318 44.749c0 20.765-16.834 37.598-37.599 37.598C16.954 82.347.12 65.514.12 44.75c0-20.766 16.834-37.6 37.6-37.6 20.764 0 37.598 16.834 37.598 37.6"/><path stroke="#FFF" stroke-linecap="round" stroke-linejoin="round" stroke-width="2.515" d="M20.408 34.74v20.017l17.311 10.008 17.312-10.008V34.74L37.719 24.732zm17.311-20.179v3.017"/><path stroke="#FFF" stroke-dasharray="4.705859825625057,4.705859825625057" stroke-linecap="round" stroke-linejoin="round" stroke-width="2.515" d="M37.719 22.284v16.47"/><path stroke="#FFF" stroke-linecap="round" stroke-linejoin="round" stroke-width="2.515" d="M37.719 41.107v3.017m0 0l-2.542 1.626"/><path stroke="#FFF" stroke-dasharray="5.00057301883809,5.00057301883809" stroke-linecap="round" stroke-linejoin="round" stroke-width="2.515" d="M30.963 48.443L16.216 57.87"/><path stroke="#FFF" stroke-linecap="round" stroke-linejoin="round" stroke-width="2.515" d="M14.11 59.217l-2.543 1.625m26.152-16.718l2.528 1.648"/><path stroke="#FFF" stroke-dasharray="4.916081679494757,4.916081679494757" stroke-linecap="round" stroke-linejoin="round" stroke-width="2.515" d="M44.366 48.457l14.415 9.395"/><path stroke="#FFF" stroke-linecap="round" stroke-linejoin="round" stroke-width="2.515" d="M60.841 59.194l2.527 1.648"/><path fill="#00C7FF" d="M43 7.28a5.03 5.03 0 1 1-10.058 0A5.03 5.03 0 0 1 43 7.28" style="mix-blend-mode:multiply"/><path fill="#0AEA8E" d="M43 82.72a5.03 5.03 0 1 1-10.059-.001 5.03 5.03 0 0 1 10.059 0" style="mix-blend-mode:multiply"/><path fill="#00C7FF" d="M10.31 65.117a5.03 5.03 0 1 1-10.059 0 5.03 5.03 0 0 1 10.059 0" style="mix-blend-mode:multiply"/><path fill="#0AEA8E" d="M74.684 25.889a5.03 5.03 0 1 1-10.058 0 5.03 5.03 0 0 1 10.058 0m-64.374 0a5.03 5.03 0 1 1-10.058 0 5.03 5.03 0 0 1 10.058 0" style="mix-blend-mode:multiply"/><path fill="#00C7FF" d="M75.187 65.117a5.03 5.03 0 1 1-10.059 0 5.03 5.03 0 0 1 10.06 0" style="mix-blend-mode:multiply"/></g></svg><svg width="84" height="97" viewBox="-4 -4 84 97" id="icon_special_02" y="214" xmlns="http://www.w3.org/2000/svg"><g fill="none" fill-rule="evenodd"><path fill="#0AEA8E" d="M76.05 44.8c0 20.888-16.932 37.82-37.82 37.82C17.345 82.62.41 65.688.41 44.8c0-20.887 16.934-37.82 37.82-37.82 20.888 0 37.82 16.933 37.82 37.82"/><path fill="#00C7FF" d="M43.29 7.059a5.059 5.059 0 1 1-10.118 0 5.059 5.059 0 0 1 10.118 0" style="mix-blend-mode:multiply"/><path fill="#0AEA8E" d="M43.29 82.941a5.059 5.059 0 1 1-10.119 0 5.059 5.059 0 0 1 10.119 0" style="mix-blend-mode:multiply"/><path stroke="#FFF" stroke-linecap="round" stroke-linejoin="round" stroke-width="2.529" d="M54.393 62.8H22.069a1.838 1.838 0 0 1-1.838-1.837V28.639c0-1.015.823-1.838 1.838-1.838h32.324c1.015 0 1.838.823 1.838 1.838v32.324a1.838 1.838 0 0 1-1.838 1.838z"/><path fill="#00C7FF" d="M10.37 64.73a5.06 5.06 0 1 1-10.118-.002 5.06 5.06 0 0 1 10.119.001" style="mix-blend-mode:multiply"/><path fill="#0AEA8E" d="M10.37 25.27a5.059 5.059 0 1 1-10.117 0 5.059 5.059 0 0 1 10.118 0m65.259 0a5.059 5.059 0 1 1-10.119 0 5.059 5.059 0 0 1 10.118 0" style="mix-blend-mode:multiply"/><path fill="#00C7FF" d="M75.63 64.73a5.06 5.06 0 1 1-10.12-.002 5.06 5.06 0 0 1 10.12.001" style="mix-blend-mode:multiply"/><path stroke="#FFF" stroke-linecap="round" stroke-linejoin="round" stroke-width="2.381" d="M35.68 53.682a4.5 4.5 0 0 1-6.362 0 4.474 4.474 0 0 1-1.316-3.18 4.47 4.47 0 0 1 1.317-3.182l1.594-1.596a1.097 1.097 0 0 0-.007-1.458l-1.588-1.586A4.473 4.473 0 0 1 28 39.498a4.47 4.47 0 0 1 1.32-3.183A4.457 4.457 0 0 1 32.499 35a4.48 4.48 0 0 1 3.182 1.315l1.583 1.582c.417.38 1.048.384 1.469.01l1.589-1.59A4.453 4.453 0 0 1 43.502 35c1.2 0 2.331.468 3.181 1.318A4.462 4.462 0 0 1 48 39.498c0 1.2-.467 2.332-1.317 3.182l-1.588 1.586a1.095 1.095 0 0 0 .004 1.468l1.584 1.586A4.464 4.464 0 0 1 48 50.502a4.463 4.463 0 0 1-1.317 3.18A4.471 4.471 0 0 1 43.502 55a4.459 4.459 0 0 1-3.181-1.318l-1.59-1.588a1.095 1.095 0 0 0-1.462 0l-1.59 1.588z"/><path stroke="#FFF" stroke-linecap="round" stroke-linejoin="round" stroke-width="2.529" d="M19.025 33.109h-5m5 23.782h-5m5-11.891h-5m43.201-11.891h5m-5 23.782h5m-5-11.891h5M26.341 25.52v-5m23.78 5v-5m-11.89 5v-5m-11.89 43.202v5m23.78-5v5m-11.89-5v5"/></g></svg><svg width="28" height="22" viewBox="-4 -4 28 22" id="icon_youtube" x="182" y="142" xmlns="http://www.w3.org/2000/svg"><path fill="#565656" fill-rule="evenodd" d="M17.283.252c1.317.21 2.03.788 2.413 2.298.128.502.304 3.278.304 4.333v.234c0 1.058-.176 3.83-.304 4.336-.382 1.505-1.096 2.086-2.413 2.294-.758.112-4.398.253-7.29.253l.013-.002c-2.891 0-6.534-.14-7.289-.25-1.316-.21-2.033-.79-2.412-2.295C.176 10.947 0 8.175 0 7.117v-.234c0-1.055.176-3.83.305-4.333C.685 1.044 1.401.461 2.717.252c.73-.107 4.163-.243 7-.252h.282c2.89 0 6.529.141 7.284.252zM8.507 4.47v5.06l4.796-2.589L8.507 4.47z"/></svg></svg>